<svg version="1.1" xmlns="http://www.w3.org/2000/svg" viewBox="0 0 196 184" width="392" height="368">
  <g stroke-linecap="round" transform="translate(10 10) rotate(0 88 82)"><path d="M-1.87 -1.28 C64.28 -0.19, 129.27 -1.08, 175.58 -1.57 M0.13 0.18 C65.4 -0.34, 129.87 -1.79, 176.08 0.91 M177.35 -0.72 C176.61 32.9, 175.43 64.93, 176.45 162.85 M175.12 -0.33 C175.59 40.52, 176.33 79.7, 175.74 164.18 M175.23 162.51 C116.16 163.25, 50.73 164.84, 0.96 162.75 M176.3 164.4 C131.46 163.09, 86.06 163.09, -0.22 164.35 M0.13 164.71 C-1.15 104.46, 2.06 47.47, -1.58 1.04 M0.77 164.29 C0.56 117.69, 0.29 71.13, 0.91 -0.57" stroke="#000000" stroke-width="2" fill="none"></path></g><g stroke-linecap="round"><g transform="translate(44 45) rotate(0 55.58753597848124 0.17465608421491652)"><path d="M-1.05 0.71 C17.54 1.48, 93.31 2.55, 112.23 1.83 M3.57 -1.37 C21.78 -1.07, 92.39 -1.63, 110.32 -1.71" stroke="#000000" stroke-width="1" fill="none"></path></g></g><g stroke-linecap="round"><g transform="translate(42.18683397844438 110.41515221709847) rotate(0 56.496586609259225 0.9435106066441676)"><path d="M-0.81 -1.94 C18.01 -1.58, 94.48 -1.25, 113.81 -0.55 M3.94 3.18 C22.4 4.25, 93.66 3.84, 112.11 3.01" stroke="#000000" stroke-width="1" fill="none"></path></g></g><g stroke-linecap="round"><g transform="translate(45.06297348663202 78.06401344135406) rotate(0 54.36443110629921 0.04462183907605777)"><path d="M-1.94 0.99 C16.96 1.45, 91.43 1.68, 110.67 1.91 M2.21 -0.94 C20.96 -1.15, 89.87 -1.7, 108.35 -1.82" stroke="#000000" stroke-width="1" fill="none"></path></g></g><g stroke-linecap="round"><g transform="translate(44.446855661720065 142.75484193186412) rotate(0 56.84492718443266 -1.1524777689350003)"><path d="M1.87 -0.49 C19.76 -0.93, 91.39 -1.52, 109.27 -1.19 M-0.55 -3.23 C17.98 -3.56, 95.07 -0.37, 114.24 0.93" stroke="#000000" stroke-width="1" fill="none"></path></g></g></svg>